PathFileType	4	(X/Y/Z)	./resultDataOpenSim/trcMotMarkerGrf/sub09/qtm-02-05.trc
DataRate	CameraRate	NumFrames	NumMarkers	Units	OrigDataRate	OrigDataStartFrame	OrigNumFrames
250.000000	250.000000	9	24	m	250.000000	353	470
Frame#	Time	L.Toe.Tip			R.Toe.Tip			L.Ankle.Lat			R.Ankle.Lat			L.Ankle.Med			R.Ankle.Med			L.Heel			R.Heel			L.Knee.Lat			R.Knee.Lat			L.Knee.Med			R.Knee.Med			L.Thigh.Upper			R.Thigh.Upper			L.ASIS			R.ASIS			V.Sacral			L.Acromium			R.Acromium			C7			L.Elbow			R.Elbow			L.Wrist.Lat			R.Wrist.Lat
		X1	Y1	Z1	X2	Y2	Z2	X3	Y3	Z3	X4	Y4	Z4	X5	Y5	Z5	X6	Y6	Z6	X7	Y7	Z7	X8	Y8	Z8	X9	Y9	Z9	X10	Y10	Z10	X11	Y11	Z11	X12	Y12	Z12	X13	Y13	Z13	X14	Y14	Z14	X15	Y15	Z15	X16	Y16	Z16	X17	Y17	Z17	X18	Y18	Z18	X19	Y19	Z19	X20	Y20	Z20	X21	Y21	Z21	X22	Y22	Z22	X23	Y23	Z23	X24	Y24	Z24

353	1.408	0.67174901	0.11818853	-0.0095524182	1.0104197	0.039656029	0.13479025	0.60841415	0.25849617	-0.033971408	0.86266018	0.053370086	0.1706615	0.63782971	0.24199471	0.058465868	0.87153114	0.093985543	0.080061517	0.53414562	0.28373367	0.017199729	0.79209214	0.034121775	0.12233569	0.9510131	0.48002709	-0.053259727	0.95421308	0.50154433	0.23324353	0.95947634	0.46379702	0.074403046	0.93423879	0.49112015	0.1088865	0.82711797	0.86976493	-0.069587021	0.84405983	0.8955029	0.29970865	0.90868012	0.96140257	-0.017691394	0.92045539	0.97864102	0.2210225	0.74577446	1.0242045	0.10553902	0.89108155	1.4259106	-0.067128012	0.87550341	1.4325208	0.26352495	0.81533994	1.4760735	0.096795193	0.76284135	1.0781337	-0.12665489	0.75029616	1.0879468	0.35084638	0.91236701	0.85932484	-0.14727417	0.91881355	0.87172962	0.37222574
354	1.412	0.68923834	0.11697993	-0.010171492	1.0104332	0.039655731	0.1347956	0.62247493	0.25564931	-0.033166813	0.86253885	0.053468867	0.17064668	0.65240456	0.23917617	0.059227358	0.8716612	0.094085367	0.079987221	0.54776214	0.27903754	0.018504463	0.79221699	0.034323033	0.12211721	0.96134384	0.48302121	-0.052676784	0.95548113	0.50142094	0.23337745	0.96901447	0.46701221	0.074803652	0.93493311	0.49118247	0.10906875	0.83340901	0.87155506	-0.069632183	0.84891889	0.89644832	0.29985357	0.91431939	0.96319124	-0.017139358	0.92568321	0.97981464	0.22164285	0.75129964	1.0255238	0.10579437	0.89619972	1.4271964	-0.067163773	0.88116148	1.4340757	0.26351803	0.82070024	1.4774511	0.09687083	0.76685287	1.0799776	-0.12634437	0.75595042	1.0896278	0.35223774	0.9147464	0.86028984	-0.14803913	0.92590358	0.87405502	0.37191793
355	1.416	0.70699226	0.11568456	-0.01076696	1.0104492	0.03964849	0.13479588	0.6365515	0.2525805	-0.0322952	0.86231824	0.053589149	0.17064887	0.66707099	0.23622538	0.059974586	0.87181364	0.094195227	0.079886514	0.56150832	0.27406425	0.019762493	0.79228343	0.034522103	0.12193691	0.97153152	0.48597088	-0.052147667	0.95672717	0.50130481	0.23350784	0.97853825	0.47015172	0.0751425	0.9362428	0.49125637	0.10928692	0.83966291	0.87332018	-0.069660204	0.85335729	0.8972883	0.3000037	0.91993496	0.96493855	-0.016526483	0.93089935	0.98094786	0.22226333	0.75680116	1.0268009	0.10601576	0.90133091	1.4284333	-0.067192907	0.8868041	1.4356017	0.26350874	0.8260623	1.4787818	0.096965897	0.77084406	1.0817842	-0.12604371	0.76157308	1.0912073	0.35334406	0.91706587	0.86123861	-0.14885787	0.93298734	0.87634071	0.37160235
356	1.42	0.7249835	0.11433241	-0.011319811	1.0104635	0.039623938	0.13480104	0.65070759	0.2492988	-0.031396338	0.86206958	0.053720946	0.17064907	0.68181844	0.23315411	0.060711933	0.87198067	0.09430379	0.079775113	0.57535291	0.26881402	0.021028824	0.7921954	0.034693287	0.12186496	0.98153058	0.48886002	-0.051674453	0.95797227	0.50122243	0.23359311	0.98834696	0.47325124	0.075478476	0.93778037	0.49133477	0.1094311	0.84600488	0.87507372	-0.069635075	0.85746169	0.89802706	0.30016068	0.92552604	0.96664131	-0.015871971	0.93610142	0.98203781	0.22287336	0.76223629	1.0280154	0.10619653	0.90647179	1.4296174	-0.067216841	0.89242059	1.437091	0.26349491	0.83143783	1.4800572	0.097038852	0.77478797	1.0835499	-0.12574808	0.76718795	1.0926705	0.35413432	0.91932458	0.86216592	-0.14972927	0.94006792	0.87858342	0.37127753
357	1.424	0.74306952	0.11290503	-0.011739649	1.0104708	0.039575186	0.13481928	0.6649908	0.2458112	-0.030497803	0.8618944	0.053854364	0.17061564	0.69662246	0.22995026	0.061478414	0.87211885	0.094394558	0.079689445	0.58932009	0.26333486	0.022270087	0.79198805	0.034838356	0.12187403	0.99130301	0.49166265	-0.051246095	0.95924898	0.50116751	0.23365757	0.99843272	0.47635724	0.075846139	0.93924867	0.49141419	0.10942488	0.85255747	0.87681428	-0.06954364	0.86141889	0.89868386	0.30030765	0.93113925	0.96829292	-0.015227947	0.94128815	0.98307907	0.22346622	0.76761003	1.0291563	0.10633731	0.91162099	1.430746	-0.067239202	0.89800488	1.4385372	0.26347523	0.83682121	1.4812736	0.09706949	0.77869483	1.0852733	-0.12547251	0.77283053	1.0940355	0.35471134	0.9215563	0.86307205	-0.15063823	0.94714209	0.8807774	0.37094803
358	1.428	0.76111924	0.11137134	-0.011932521	1.0104813	0.039510269	0.1348498	0.67941793	0.24211925	-0.029608278	0.86183568	0.053985247	0.1705315	0.71156365	0.22659768	0.062267916	0.87219992	0.094464883	0.079653206	0.6034464	0.25766978	0.023433756	0.79183223	0.034992452	0.12183865	1.0008913	0.49437662	-0.050837917	0.96057758	0.50112867	0.23374174	1.0086152	0.47947814	0.076185164	0.94051118	0.49151112	0.10926358	0.85924357	0.87852196	-0.069427882	0.86545148	0.89929807	0.30043268	0.93680231	0.96988657	-0.014626055	0.9464642	0.98406436	0.22404426	0.77295615	1.030226	0.10644547	0.91678096	1.4318174	-0.067261336	0.90356063	1.4399404	0.2634529	0.84219603	1.4824263	0.097070215	0.78258982	1.0869489	-0.12522935	0.77852589	1.0953245	0.35517213	0.92381214	0.86395642	-0.15156242	0.95420439	0.88291689	0.37061878
359	1.432	0.77911887	0.10972407	-0.011872904	1.0105186	0.039450507	0.13488419	0.69399114	0.23822778	-0.028728916	0.86186861	0.054114311	0.17040325	0.72685909	0.22311341	0.062995964	0.87228448	0.094539805	0.079631085	0.6177547	0.25182683	0.024498103	0.7918735	0.035201061	0.12165792	1.010386	0.49701795	-0.050416497	0.9619495	0.5011021	0.23386169	1.0187181	0.482573	0.076397987	0.94157089	0.49164364	0.10898978	0.86583874	0.88017576	-0.069344721	0.86969921	0.89991204	0.30055035	0.9425021	0.97141766	-0.014054015	0.95163552	0.98498644	0.2246137	0.77831428	1.0312412	0.10654121	0.9219569	1.4328317	-0.067280975	0.90909842	1.4413036	0.26343271	0.847554	1.4835156	0.097072561	0.7864939	1.088572	-0.12501697	0.78428377	1.0965531	0.35557057	0.92612624	0.86481477	-0.15248554	0.96125518	0.88499815	0.37028588
360	1.436	0.79712355	0.10798054	-0.011581154	1.010594	0.039410001	0.1349163	0.70871355	0.23414443	-0.027861321	0.8619585	0.054244418	0.17024748	0.74264149	0.21955009	0.06359525	0.87248003	0.094646535	0.079554412	0.63225367	0.24580073	0.02546429	0.79211446	0.035493224	0.12134266	1.0198197	0.49958368	-0.049977068	0.96332932	0.50107459	0.23400557	1.0286592	0.48556719	0.076436593	0.94254242	0.49179022	0.10869642	0.87224624	0.88177255	-0.069320819	0.87413308	0.90053398	0.30067821	0.9482174	0.97288368	-0.013488014	0.95680427	0.98584298	0.22517666	0.78371078	1.0322209	0.10664372	0.92715183	1.43379	-0.06729574	0.91462512	1.4426267	0.263415	0.8529029	1.4845491	0.097094813	0.79041725	1.090146	-0.12482672	0.79009927	1.0977296	0.35593088	0.92850409	0.86564261	-0.15340307	0.96829799	0.88701891	0.36994008
361	1.44	0.81520202	0.10616138	-0.011093526	1.0106915	0.039382805	0.13494561	0.72359402	0.22987522	-0.027009972	0.86208404	0.054380371	0.17008099	0.75873291	0.21594945	0.064124931	0.8728175	0.094772923	0.079399337	0.64693513	0.23959747	0.026349233	0.79245428	0.035857312	0.12098772	1.0291469	0.50204772	-0.049554995	0.96468104	0.50101954	0.23415357	1.0383601	0.48838584	0.076296111	0.94358957	0.49189891	0.10850216	0.8785909	0.88332844	-0.069359585	0.87864785	0.90114333	0.30081296	0.95395415	0.97428169	-0.012931306	0.96197013	0.98663997	0.22573019	0.7891347	1.0331663	0.10674941	0.93236456	1.4346915	-0.067305091	0.92013873	1.4439046	0.26339555	0.8582544	1.4855419	0.097134235	0.79436069	1.0916764	-0.12465198	0.79595425	1.0988559	0.35626872	0.93094149	0.86643343	-0.15431803	0.97533217	0.88897714	0.3695759
